<svg xmlns="http://www.w3.org/2000/svg" version="1.1" xmlns:xlink="http://www.w3.org/1999/xlink" width="1000" height="1000"><g clip-path="url(#SvgjsClipPath1026)"><rect width="1000" height="1000" fill="#ffffff"></rect><g transform="matrix(5.298013245033113,0,0,5.298013245033113,99.99999999999994,99.99999999999994)"><svg xmlns="http://www.w3.org/2000/svg" version="1.1" xmlns:xlink="http://www.w3.org/1999/xlink" width="151" height="151"><svg width="151" height="151" viewBox="0 0 151 151" fill="none" xmlns="http://www.w3.org/2000/svg">
<path d="M136 75.5C136 42.0868 108.913 15 75.5 15C42.0868 15 15 42.0868 15 75.5C15 108.913 42.0868 136 75.5 136V151C33.8025 151 0 117.197 0 75.5C0 33.8025 33.8025 0 75.5 0C117.197 0 151 33.8025 151 75.5C151 117.197 117.197 151 75.5 151V136C108.913 136 136 108.913 136 75.5Z" fill="#D68500"></path>
<path fill-rule="evenodd" clip-rule="evenodd" d="M75.5929 53.9932C78.6721 51.0008 83.1272 46.7169 86.9142 43.1748C88.8795 41.3367 90.6687 39.6948 91.9933 38.5361C92.6541 37.9581 93.2069 37.4937 93.6105 37.1846C93.8097 37.0321 93.9875 36.9062 94.13 36.8232C94.1978 36.7838 94.2834 36.7388 94.3732 36.7109C94.4172 36.6973 94.4905 36.6785 94.5783 36.6807C94.6464 36.6824 94.7487 36.6986 94.8488 36.7598L94.9464 36.8369L121.944 63.334L121.953 63.3438L121.963 63.3545C123.686 65.2495 125.738 68.6638 126.338 72.7939C126.941 76.9465 126.071 81.8029 121.971 86.5186C113.951 95.7416 100.933 108.058 95.4298 113.061L95.091 113.368L75.6017 95.3789L57.0881 113.393L28.2131 84.5176L28.1906 84.4873C25.7972 81.2391 22.3985 72.8413 28.1984 65.3838C33.8281 58.1455 49.5952 42.9828 56.7531 36.3242L57.1007 36L75.5929 53.9932ZM65.839 80.4697C65.3328 79.9133 64.2371 78.6868 62.2023 76.3613C60.8648 74.8327 60.4677 73.5277 60.464 72.5508C60.4604 71.5633 60.8576 70.8663 61.1799 70.5439L61.1867 70.5371L61.1925 70.5303L67.6926 63.5303L68.0207 63.1777L56.8322 51.9893L56.4787 52.3311C51.4807 57.1624 40.8767 67.4331 38.4728 69.8369C37.1478 71.162 36.8614 72.6601 37.0568 73.9766C37.2485 75.2675 37.8991 76.3769 38.4465 77.0156L38.4591 77.0303L57.3263 95.8975L85.3215 67.9014C90.8368 73.6066 90.207 77.6812 89.422 78.8926L83.6398 85.7275L94.4816 96.0527L94.8351 96.3887L95.1798 96.0439C97.7648 93.459 101.767 89.4066 105.374 85.6494C108.966 81.9083 112.207 78.4185 113.234 76.9814C114.351 75.4164 114.297 73.7761 113.796 72.4062C113.308 71.0709 112.39 69.9654 111.68 69.3369L94.3263 51.9834L65.839 80.4697Z" fill="#005744"></path>
</svg></svg></g></g><defs><clipPath id="SvgjsClipPath1026"><rect width="1000" height="1000" x="0" y="0" rx="400" ry="400"></rect></clipPath></defs></svg>